<svg width="42" height="29" viewBox="0 0 42 29" fill="none" xmlns="http://www.w3.org/2000/svg">
<path d="M35.5407 10.753C35.3337 9.21884 34.4814 7.90387 32.9351 6.69847L32.0462 6.10186L31.4496 6.99069C30.6947 8.1352 30.3051 9.73022 30.4269 11.2522C30.4877 11.7879 30.6582 12.7498 31.2061 13.5899C30.6582 13.8821 29.5746 14.2961 28.1257 14.2718H0.48681L0.438107 14.5883C0.182418 16.1225 0.182418 20.8953 3.28722 24.5724C5.64931 27.3606 9.18026 28.7852 13.807 28.7852C23.8155 28.7852 31.2183 24.1828 34.6884 15.8059C36.052 15.8302 38.9864 15.8181 40.4962 12.9324C40.5327 12.8716 40.6301 12.6889 40.8858 12.1532L41.0319 11.8488L40.1796 11.2765C39.2664 10.6677 37.16 10.4486 35.5407 10.753ZM22.5979 0.525391H18.3973V4.34856H22.5979V0.525391ZM22.5979 5.11563H18.3973V8.92662H22.5979V5.11563ZM17.6302 5.11563H13.4296V8.92662H17.6302V5.11563ZM12.6625 5.11563H8.46189V8.92662H12.6625V5.11563ZM7.69483 9.69369H3.49421V13.5169H7.69483V9.69369ZM12.6625 9.69369H8.46189V13.5169H12.6625V9.69369ZM17.6302 9.69369H13.4296V13.5169H17.6302V9.69369ZM22.5979 9.69369H18.3973V13.5169H22.5979V9.69369ZM27.5656 9.69369H23.365V13.5169H27.5656V9.69369Z" fill="#FAFBFD"/>
</svg>
