<svg width="12" height="21" viewBox="0 0 12 21" fill="none" xmlns="http://www.w3.org/2000/svg">
<path d="M11.6826 6.37919C11.5975 6.29671 11.5125 6.21423 11.4274 6.21423H8.19546V5.05947C8.19546 4.81202 8.28051 4.56457 8.62072 4.56457H11.1723C11.2573 4.56457 11.4274 4.56457 11.5125 4.3996C11.5125 4.31712 11.5975 4.23464 11.5975 4.15216V0.852844C11.5975 0.605395 11.4274 0.44043 11.1723 0.44043H7.51504C3.43254 0.44043 3.09233 3.82222 3.09233 4.81202V6.21423H0.966032C0.710876 6.21423 0.540771 6.37919 0.540771 6.62664V9.92595C0.540771 10.1734 0.710876 10.3384 0.966032 10.3384H3.09233V19.8239C3.09233 20.0713 3.26244 20.2363 3.51759 20.2363H7.7702C8.02535 20.2363 8.19546 20.0713 8.19546 19.8239V10.3384H11.0872C11.3424 10.3384 11.5125 10.1734 11.5125 10.0084L11.8527 6.70912C11.8527 6.54416 11.7676 6.46167 11.6826 6.37919Z" fill="#0F0518"/>
</svg>
