<svg width="25" height="24" viewBox="0 0 25 24" fill="none" xmlns="http://www.w3.org/2000/svg">
<path fill-rule="evenodd" clip-rule="evenodd" d="M12.9486 0C6.31877 0 0.948608 5.50526 0.948608 12.3019C0.948608 17.7392 4.38876 22.3458 9.15487 23.977C9.75155 24.0902 9.97255 23.7126 9.97255 23.3804C9.97255 23.0858 9.96518 22.3156 9.95782 21.2885C6.6208 22.0286 5.91362 19.6422 5.91362 19.6422C5.3685 18.2225 4.58028 17.8373 4.58028 17.8373C3.49004 17.0746 4.66132 17.0897 4.66132 17.0897C5.86205 17.1803 6.50294 18.3584 6.50294 18.3584C7.57108 20.2388 9.30957 19.6951 9.99465 19.3779C10.1051 18.585 10.4145 18.0412 10.7534 17.7316C8.0941 17.4295 5.29483 16.3723 5.29483 11.66C5.29483 10.3158 5.75892 9.22074 6.5324 8.35984C6.40717 8.04266 5.99465 6.79662 6.6429 5.10501C6.6429 5.10501 7.65211 4.77274 9.94308 6.36616C10.9007 6.0943 11.9247 5.95837 12.9486 5.95082C13.9652 5.95837 14.9965 6.0943 15.9541 6.36616C18.2451 4.77274 19.2543 5.10501 19.2543 5.10501C19.9099 6.79662 19.4974 8.05021 19.3722 8.35984C20.1383 9.22074 20.6024 10.3158 20.6024 11.66C20.6024 16.3874 17.7958 17.422 15.1217 17.7316C15.549 18.1092 15.9394 18.8644 15.9394 20.0123C15.9394 21.6586 15.9247 22.9801 15.9247 23.3879C15.9247 23.7202 16.1383 24.0978 16.7497 23.977C21.5158 22.3458 24.9486 17.7392 24.9486 12.3094C24.9486 5.50526 19.5784 0 12.9486 0Z" fill="#0E061A"/>
</svg>
