<svg width="20" height="21" viewBox="0 0 20 21" fill="none" xmlns="http://www.w3.org/2000/svg">
<path d="M19.7942 20.2363H15.6954V13.8063C15.6954 12.273 15.6681 10.2992 13.5637 10.2992C11.429 10.2992 11.1023 11.9697 11.1023 13.6947V20.2358H7.00372V7.0132H10.9384V8.82018H10.9936C11.7947 7.44799 13.2898 6.62538 14.8758 6.68437C19.0299 6.68437 19.7959 9.42156 19.7959 12.9826L19.7942 20.2363ZM2.37904 5.20572C2.37879 5.20572 2.37854 5.20572 2.37854 5.20572C1.07371 5.20572 0 4.13025 0 2.82314C0 1.51602 1.07371 0.44043 2.37854 0.44043C3.68324 0.44043 4.75683 1.51577 4.75707 2.82264C4.75707 2.82264 4.75707 2.82289 4.75707 2.82314C4.75707 4.13001 3.68362 5.20559 2.37904 5.20572ZM4.42833 20.2363H0.325406V7.0132H4.42833V20.2363Z" fill="#0F0518"/>
</svg>
