<svg width="21" height="20" viewBox="0 0 21 20" fill="none" xmlns="http://www.w3.org/2000/svg">
<path d="M9.33265 0.757674C9.78296 -0.25256 11.2169 -0.252557 11.6672 0.757676L13.7304 5.38624C13.9161 5.8029 14.3098 6.08897 14.7635 6.13685L19.8031 6.66875C20.903 6.78484 21.3461 8.14858 20.5245 8.88903L16.76 12.2815C16.4212 12.5869 16.2708 13.0498 16.3654 13.4961L17.4169 18.4534C17.6464 19.5353 16.4863 20.3782 15.5282 19.8256L11.1384 17.2937C10.7433 17.0658 10.2566 17.0658 9.86141 17.2937L5.47166 19.8256C4.51355 20.3782 3.35349 19.5353 3.58298 18.4534L4.63443 13.4961C4.72908 13.0498 4.57868 12.5869 4.23981 12.2815L0.47534 8.88903C-0.346295 8.14858 0.0968138 6.78484 1.19676 6.66875L6.23634 6.13685C6.69 6.08897 7.08374 5.8029 7.26947 5.38624L9.33265 0.757674Z" fill="#F5BB00"/>
</svg>
