<svg width="26" height="21" viewBox="0 0 26 21" fill="none" xmlns="http://www.w3.org/2000/svg">
<path d="M23.0075 5.36886C23.0226 5.58362 23.0226 5.79839 23.0226 6.01514C23.0226 12.6195 17.9158 20.2363 8.57774 20.2363V20.2324C5.81926 20.2363 3.11809 19.4574 0.795898 17.9907C1.197 18.0382 1.60012 18.0619 2.00424 18.0629C4.29024 18.0649 6.51089 17.3097 8.30933 15.9192C6.13693 15.8786 4.23193 14.4841 3.56644 12.4483C4.32743 12.5928 5.11155 12.5631 5.85847 12.3622C3.49004 11.8911 1.7861 9.84236 1.7861 7.46309V7.39975C2.4918 7.78673 3.28195 8.00149 4.09019 8.02525C1.85948 6.55849 1.17187 3.63686 2.51894 1.3526C5.09647 4.47515 8.89943 6.37342 12.9819 6.57433C12.5727 4.83837 13.1316 3.01928 14.4506 1.79896C16.4953 -0.0943599 19.7112 0.00362158 21.6333 2.01571C22.7702 1.795 23.86 1.38427 24.8572 0.80232C24.4782 1.95929 23.685 2.94208 22.6255 3.56659C23.6318 3.4498 24.6149 3.18456 25.5408 2.78076C24.8592 3.78433 24.0017 4.66022 23.0085 5.36787L23.0075 5.36886Z" fill="#0F0518"/>
</svg>
