<svg width="136" height="32" viewBox="0 0 136 32" fill="none" xmlns="http://www.w3.org/2000/svg">
<path d="M67.8461 8.39802C62.5354 8.39802 58.7063 11.8361 58.7063 16.9933C58.7063 22.1504 63.0164 25.5885 68.3271 25.5885C71.5357 25.5885 74.3642 24.3279 76.1152 22.2029L72.4352 20.0923C71.4635 21.1476 69.9867 21.7636 68.3271 21.7636C66.0229 21.7636 64.0651 20.5698 63.3387 18.6598H76.8175C76.9233 18.125 76.9858 17.5711 76.9858 16.9885C76.9858 11.8361 73.1568 8.39802 67.8461 8.39802ZM63.2954 15.322C63.8967 13.4167 65.5419 12.2181 67.8413 12.2181C70.1454 12.2181 71.7906 13.4167 72.3871 15.322H63.2954ZM119.645 8.39802C114.334 8.39802 110.505 11.8361 110.505 16.9933C110.505 22.1504 114.815 25.5885 120.126 25.5885C123.334 25.5885 126.163 24.3279 127.914 22.2029L124.234 20.0923C123.262 21.1476 121.785 21.7636 120.126 21.7636C117.821 21.7636 115.864 20.5698 115.137 18.6598H128.616C128.722 18.125 128.784 17.5711 128.784 16.9885C128.784 11.8361 124.955 8.39802 119.645 8.39802ZM115.099 15.322C115.7 13.4167 117.345 12.2181 119.645 12.2181C121.949 12.2181 123.594 13.4167 124.19 15.322H115.099ZM96.3237 16.9933C96.3237 19.8583 98.2094 21.7684 101.134 21.7684C103.116 21.7684 104.602 20.8754 105.367 19.419L109.062 21.5344C107.532 24.0652 104.665 25.5885 101.134 25.5885C95.8186 25.5885 91.9943 22.1504 91.9943 16.9933C91.9943 11.8361 95.8234 8.39802 101.134 8.39802C104.665 8.39802 107.527 9.92129 109.062 12.4521L105.367 14.5675C104.602 13.1111 103.116 12.2181 101.134 12.2181C98.2142 12.2181 96.3237 14.1282 96.3237 16.9933ZM136 3.14538V25.111H131.671V3.14538H136ZM17.7745 0.757812L35.549 31.3187H0L17.7745 0.757812ZM62.2131 3.14538L48.8834 26.066L35.5538 3.14538H40.5518L48.8834 17.4708L57.2151 3.14538H62.2131ZM90.5512 8.87554V13.5026C90.0702 13.3642 89.5603 13.2687 89.0119 13.2687C86.217 13.2687 84.2015 15.1787 84.2015 18.0438V25.111H79.8721V8.87554H84.2015V13.2687C84.2015 10.8429 87.0444 8.87554 90.5512 8.87554Z" fill="#0E061A"/>
</svg>
