<svg width="24" height="17" viewBox="0 0 24 17" fill="none" xmlns="http://www.w3.org/2000/svg">
<path fill-rule="evenodd" clip-rule="evenodd" d="M21.3585 0.713345C22.3496 0.980355 23.1284 1.76422 23.3937 2.76169C23.8731 4.56783 23.8731 8.33839 23.8731 8.33839C23.8731 8.33839 23.8731 12.109 23.3918 13.9151C23.1265 14.9126 22.3477 15.6964 21.3566 15.9634C19.562 16.4479 12.3629 16.4479 12.3629 16.4479C12.3629 16.4479 5.16382 16.4479 3.36925 15.9634C2.37817 15.6964 1.59932 14.9126 1.33402 13.9151C0.852692 12.109 0.852692 8.33839 0.852692 8.33839C0.852692 8.33839 0.852692 4.56783 1.33402 2.76169C1.59932 1.76422 2.37817 0.980355 3.36925 0.713345C5.16382 0.228912 12.3629 0.228912 12.3629 0.228912C12.3629 0.228912 19.562 0.228912 21.3585 0.713345ZM16.0435 8.33796L10.061 11.8129V4.86301L16.0435 8.33796Z" fill="#0F0518"/>
</svg>
